<?xml version="1.0" encoding="UTF-8"?><svg id="b" xmlns="http://www.w3.org/2000/svg" viewBox="0 0 89.21 115.11"><defs><style>.d{fill:#ff4d7a;}</style></defs><g id="c"><path class="d" d="m9.61,76.75c0-.1,0-.21.01-.31.08-1.3.49-2.62,1.4-3.56,1.13-1.17,2.83-1.58,4.07-2.62,2.88-2.41,1.49-6.4,1.76-9.61.25-2.96,2.11-5.51,3.19-8.28,1.47-3.76,1.51-7.91,2.05-11.91.3-2.26.81-4.55,1.79-6.62,1.05-2.2,2.86-3.72,4.14-5.76,2.99-4.76,3.65-10.62,6.1-15.68.41-.84.96-1.74,1.86-1.96,2.54-.63,3.27,7.43,3.69,8.91,1.2,4.26,2.43,8.51,4.09,12.62,3.09,7.64,7.05,16.25,12.95,22.16,7.07,7.07,14.64,15.06,19.98,23.56,5.74,9.12,6.35,20.1,6.24,30.65-.02,2.28-.04,5.3,2.37,6.49,1.09.54,2.58.34,3.31-.64.56-.76.58-1.77.58-2.72-.07-12.19.22-26.3-6.57-36.97-3.71-5.84-9.35-10.13-14.26-15-7.3-7.24-13.07-15.92-17.33-25.26-2.53-5.54-4.81-11.23-6.36-17.13-1.11-4.24-1.46-8.53-1.68-12.87-.07-1.32-.43-2.75-1.48-3.56-1.22-.95-2.98-.76-4.44-.24-5.17,1.83-7.36,6.49-9.03,11.32-1.86,5.38-3.72,10.75-5.57,16.13-1.71,4.95-3.43,9.91-4.59,15.03-1.69,7.44-3.74,13.97-7.93,20.41-3.82,5.88-8.39,11.66-9.7,18.73-.32,1.72-.42,3.52.11,5.18s1.81,3.16,3.5,3.6c2.61.67,5.3-1.43,6.21-3.96,1.18-3.29-.56-6.75-.48-10.1Z"/></g></svg>